<?xml version="1.0" encoding="UTF-8" standalone="no"?> <!--part of the category icon pack by sixsixfive released under CC0 (https://creativecommons.org/publicdomain/zero/1.0/) on openclipart--> <svg xmlns="http://www.w3.org/2000/svg" xmlns:xlink="http://www.w3.org/1999/xlink" viewBox="0 0 32 32"><defs id="0"><linearGradient id="9"><stop id="E" stop-color="#d3d7cf"></stop><stop id="F" offset="1" stop-color="#eeeeec"></stop></linearGradient><linearGradient id="A"><stop id="G" stop-color="#fff"></stop><stop id="H" offset="1" stop-color="#fff" stop-opacity="0"></stop></linearGradient><linearGradient x1="31.02" y1="1051.78" x2="31.11" y2="1028.17" id="B" xlink:href="#A" gradientUnits="userSpaceOnUse" gradientTransform="translate(0,-1020.3622)"></linearGradient><linearGradient x1="31.02" y1="1021.04" x2="31.18" y2="1025.18" id="C" xlink:href="#A" gradientUnits="userSpaceOnUse" gradientTransform="translate(0,-1020.3622)"></linearGradient><radialGradient cx="13.531" cy="1049.88" r="16" id="D" xlink:href="#9" gradientUnits="userSpaceOnUse" gradientTransform="matrix(1.4329786,-1.4036705,1.3587115,1.387081,-1430.5122,-1405.3484)"></radialGradient></defs><rect width="32" height="32" rx="5" id="1" fill="url(#D)"></rect><path d="m 54,50 a 4,4 0 1 1 -8,0 4,4 0 1 1 8,0 z" transform="matrix(0.5,0,0,0.5,-9,-8)" id="2" opacity="0.2" fill="#2e3436"></path><path d="m 5,0.4816 c -2.5134381,0 -4.53125,2.0178 -4.53125,4.5312 l 0,22 c 0,2.5134 2.0178119,4.5312 4.53125,4.5312 l 22,0 c 2.513438,0 4.53125,-2.0178 4.53125,-4.5312 l 0,-22 C 31.53125,2.4994 29.513438,0.4816 27,0.4816 l -22,0 z" id="3" opacity="0.4" fill="none" stroke="#000"></path><path d="m 5,1.4816 c -1.9834933,0 -3.53125,1.5477 -3.53125,3.5312 l 0,22 c 0,1.9835 1.5477567,3.5312 3.53125,3.5312 l 22,0 c 1.983493,0 3.53125,-1.5477 3.53125,-3.5312 l 0,-22 C 30.53125,3.0293 28.983493,1.4815 27,1.4816 l -22,0 z" id="4" opacity="0.5" fill="none" stroke="url(#C)"></path><path d="m 5,1.4816 c -1.9834933,0 -3.53125,1.5477 -3.53125,3.5312 l 0,22 c 0,1.9835 1.5477567,3.5312 3.53125,3.5312 l 22,0 c 1.983493,0 3.53125,-1.5477 3.53125,-3.5312 l 0,-22 C 30.53125,3.0293 28.983493,1.4815 27,1.4816 l -22,0 z" id="5" opacity="0.3" fill="none" stroke="url(#B)"></path><path d="m 54,50 a 4,4 0 1 1 -8,0 4,4 0 1 1 8,0 z" transform="matrix(0.5,0,0,0.5,-9,-9)" id="6" fill="#c00"></path><path d="M 10.20823,3.6831088 C 9.7546396,3.6887871 9.3121478,3.8013243 8.9248236,4.0299754 8.2669626,4.418334 7.8458413,5.107219 7.641417,5.9030553 7.4369928,6.6988916 7.4167814,7.6283845 7.5373571,8.6779883 c 0.051529,0.4485635 0.1378666,0.9332343 0.2428066,1.4221527 -0.5101929,0.06251 -1.0013715,0.143661 -1.4568399,0.242807 -1.0199801,0.222029 -1.8863824,0.559725 -2.5668131,1.005913 -0.6804307,0.446188 -1.1958394,1.027646 -1.35278,1.76902 -0.2539322,1.199552 0.4292514,2.365596 1.5608999,3.399293 0.8487364,0.775273 2.0022646,1.508861 3.3646065,2.185259 0.2112675,0.104893 0.4375087,0.210309 0.6590466,0.31218 a 0.61054628,0.61054628 0 0 0 0.20812,0.173434 c -0.5087176,1.288328 -0.8821361,2.51321 -1.0752866,3.607413 -0.1825673,1.034247 -0.2247803,1.972129 -0.069373,2.774933 0.1554069,0.802804 0.5147879,1.515569 1.1446599,1.942453 0.9845553,0.667264 2.271502,0.504755 3.607413,-0.10406 1.193352,-0.543847 2.489508,-1.517351 3.815533,-2.740246 l 0.03469,0.03469 0.06937,-0.06937 c 1.26456,1.328089 2.537511,2.351413 3.711473,2.983053 0.979206,0.526853 1.921313,0.811752 2.774933,0.659047 0.14227,-0.02545 0.314933,-0.08878 0.450927,-0.138747 0.135994,-0.04997 0.252631,-0.09732 0.381553,-0.173433 0.164545,-0.09713 0.315719,-0.215268 0.450927,-0.346867 0.135208,-0.131598 0.240348,-0.290848 0.346866,-0.450926 0.213038,-0.320157 0.383445,-0.677107 0.485614,-1.075287 0.204338,-0.796358 0.224978,-1.724598 0.10406,-2.774933 -0.0529,-0.459522 -0.136768,-0.955446 -0.242807,-1.45684 0.525066,-0.06044 1.027146,-0.106524 1.491527,-0.20812 1.016549,-0.222407 1.888614,-0.525414 2.566813,-0.971227 0.678199,-0.445813 1.196169,-1.063892 1.35278,-1.803706 0.253932,-1.199553 -0.463938,-2.365596 -1.595587,-3.399293 -1.027976,-0.938998 -2.478811,-1.814739 -4.231773,-2.6015 0.07783,-0.193364 0.171873,-0.399717 0.242807,-0.589673 0.260966,-0.698851 0.459627,-1.369303 0.62436,-2.011826 0.329463,-1.2850461 0.488548,-2.4482568 0.381553,-3.4339798 -0.10699,-0.9857229 -0.51341,-1.8256644 -1.24872,-2.3240065 -0.367654,-0.249171 -0.768186,-0.380305 -1.214033,-0.4162399 -0.445848,-0.035935 -0.909861,0.00583 -1.387467,0.1387466 -0.955213,0.2658314 -1.980901,0.8134595 -3.052426,1.5955866 -0.535763,0.3910635 -1.07536,0.8506648 -1.630273,1.3527799 -0.06864,0.062111 -0.139314,0.1444014 -0.20812,0.20812 C 15.013029,6.0587443 13.742796,5.0106582 12.566924,4.3768421 11.913057,4.0243964 11.27674,3.7936627 10.659157,3.7177955 10.504761,3.6988282 10.359427,3.6812163 10.20823,3.6831088 z M 9.9654235,4.9318287 c 0.4906195,-0.075499 1.1722185,0.067736 2.0118265,0.5203 1.010328,0.5445847 2.222654,1.50225 3.43398,2.7749331 C 14.822018,8.8238532 14.22527,9.4690095 13.64221,10.169515 12.283314,10.014386 10.987771,9.9397914 9.7919902,9.9613948 9.5245266,9.9662787 9.2850554,9.9817739 9.0288836,9.9960815 8.914514,9.4840541 8.8034719,8.9926091 8.7513903,8.5392417 8.6424331,7.5907746 8.6703212,6.8009158 8.8207636,6.2152353 8.9712057,5.6295548 9.2316668,5.2580167 9.5491836,5.0705754 9.6738114,4.997003 9.8018834,4.956995 9.9654235,4.9318287 z M 22.001696,5.313382 c 0.479933,-0.056215 0.843801,0.027726 1.109973,0.20812 0.354898,0.240525 0.610419,0.6892826 0.693734,1.4568399 0.08331,0.7675573 -0.04192,1.7936589 -0.346867,2.9830529 -0.19319,0.7535242 -0.487518,1.5710012 -0.83248,2.4280662 -0.256413,-0.101674 -0.49651,-0.214523 -0.763106,-0.31218 -0.7873,-0.288397 -1.631429,-0.554128 -2.49744,-0.797794 -0.735626,-1.086929 -1.485231,-2.0916469 -2.254633,-2.983052 0.597488,-0.5518902 1.174471,-1.0481864 1.734333,-1.4568398 0.991766,-0.7239099 1.892387,-1.2151571 2.636186,-1.4221532 0.185951,-0.051749 0.360323,-0.085321 0.5203,-0.10406 z m -5.792673,3.8502196 c 0.447252,0.5222423 0.91178,1.0655514 1.35278,1.6649594 -0.151417,-0.03414 -0.297858,-0.07166 -0.450926,-0.10406 -0.667468,-0.141296 -1.323803,-0.28193 -1.97714,-0.381553 0.188505,-0.213576 0.366396,-0.4570325 0.554986,-0.6590465 0.173718,-0.1860826 0.347168,-0.3444202 0.5203,-0.5202999 z M 9.8266769,11.175428 c 0.9088641,-0.0146 1.8875611,0.04732 2.9136801,0.138746 -0.414067,0.542356 -0.815842,1.077423 -1.214033,1.66496 -0.299902,0.442508 -0.595896,0.878973 -0.867167,1.318093 -0.04137,0.06696 -0.06332,0.141218 -0.10406,0.20812 -0.136982,-0.309398 -0.293991,-0.633942 -0.41624,-0.93654 -0.3362832,-0.83238 -0.57568,-1.597812 -0.7977934,-2.358693 0.1634835,-0.0062 0.317227,-0.03198 0.4856133,-0.03469 z M 8.057657,11.279487 c 0.010611,-0.0011 0.024044,0.0011 0.034687,0 0.3963943,1.411199 0.9514568,2.92967 1.6996465,4.509267 L 9.6185569,16.170307 C 9.2832512,16.795597 8.9555046,17.403522 8.682017,18.0087 8.4002052,17.881108 8.1116362,17.759543 7.849537,17.627147 6.5702431,16.980925 5.5278749,16.282832 4.7971106,15.61532 3.8227582,14.725305 3.460517,13.939651 3.5830773,13.360687 3.6398883,13.092319 3.7821106,12.84266 4.0686906,12.597581 4.1642176,12.515891 4.29076,12.436609 4.4155573,12.354774 4.9147463,12.027434 5.6457971,11.722632 6.5661305,11.522294 7.0262972,11.42213 7.5144744,11.335373 8.057657,11.279487 z m 6.104853,0.173434 c 0.878183,0.118556 1.788185,0.291415 2.70556,0.485613 0.608044,0.128716 1.192856,0.264824 1.76902,0.41624 0.324096,0.494143 0.624793,0.998128 0.93654,1.526213 0.443317,0.750959 0.845717,1.512117 1.214033,2.254633 -0.418249,0.724781 -0.855761,1.451904 -1.35278,2.18526 -0.451635,0.666391 -0.915494,1.301909 -1.387467,1.907767 -0.08537,0.109587 -0.191715,0.20476 -0.277493,0.31218 -0.412229,-0.05604 -0.825812,-0.132224 -1.24872,-0.20812 -0.457269,-0.08206 -0.920955,-0.178738 -1.387466,-0.277494 -0.618129,-0.13085 -1.2171,-0.261801 -1.803707,-0.41624 -0.327229,-0.493934 -0.624051,-0.996872 -0.93654,-1.526213 -0.444643,-0.753204 -0.84559,-1.511506 -1.214033,-2.254633 0.412826,-0.724575 0.857541,-1.454528 1.35278,-2.18526 0.531886,-0.784803 1.070721,-1.523126 1.630273,-2.219946 z m 6.208913,1.422153 c 0.614887,0.197273 1.205373,0.402988 1.76902,0.62436 -0.196841,0.430736 -0.429047,0.873793 -0.659047,1.318093 -0.03758,-0.06951 -0.06583,-0.138505 -0.10406,-0.20812 -0.244792,-0.445732 -0.498631,-0.90477 -0.763106,-1.35278 -0.07774,-0.131685 -0.164272,-0.251959 -0.242807,-0.381553 z m 2.91368,1.109973 c 1.66278,0.750365 3.039111,1.58911 3.919593,2.39338 0.974352,0.890015 1.301907,1.675669 1.179346,2.254633 -0.07559,0.357072 -0.300647,0.679115 -0.797793,1.005913 -0.497146,0.326799 -1.233694,0.63188 -2.150573,0.83248 -0.467398,0.102262 -0.970521,0.187041 -1.526213,0.242807 -0.389937,-1.424537 -0.976191,-2.947071 -1.734333,-4.543953 -0.0047,-0.0097 0.0047,-0.02497 0,-0.03469 0.31257,-0.566847 0.638326,-1.14745 0.901853,-1.699646 0.07463,-0.156391 0.137514,-0.296056 0.20812,-0.450927 z m -12.79938,3.191173 c 0.268425,0.514616 0.560017,1.040602 0.867167,1.5609 0.07798,0.132079 0.163866,0.251418 0.242807,0.381553 -0.278089,-0.08921 -0.564645,-0.183185 -0.83248,-0.277493 -0.324089,-0.114115 -0.62847,-0.225726 -0.9365401,-0.346867 0.1986331,-0.430247 0.4275551,-0.873519 0.6590461,-1.318093 z m 10.9263,0.31218 c 0.514107,1.160721 0.911438,2.258067 1.214033,3.295233 -1.038159,0.03723 -2.163249,0.0022 -3.364606,-0.10406 0.0059,-0.0078 -0.0059,-0.02689 0,-0.03469 0.03968,-0.05271 0.09918,-0.08561 0.138746,-0.138747 0.0055,-0.0074 -0.0055,-0.02724 0,-0.03469 0.35066,-0.471525 0.700002,-0.954283 1.0406,-1.45684 0.348583,-0.514337 0.65913,-1.014315 0.971227,-1.526213 z M 9.3410636,19.638973 c 0.9967124,0.392318 2.0834604,0.72526 3.2258604,1.0406 0.01099,0.003 0.02369,-0.003 0.03469,0 0.0053,0.0078 -0.0053,0.02687 0,0.03469 0.223305,0.329197 0.466167,0.658786 0.693734,0.971227 0.332197,0.456093 0.66801,0.900582 1.005913,1.318093 0.20423,0.252346 0.384533,0.49117 0.589673,0.72842 -0.02424,0.02261 -0.04518,0.04698 -0.06937,0.06937 -1.259746,1.165858 -2.480202,2.031159 -3.503354,2.49744 -0.855779,0.390001 -1.5295441,0.490184 -2.0118331,0.381553 C 9.1456138,26.644159 9.0089359,26.58745 8.890137,26.506933 8.586129,26.300897 8.3452828,25.917484 8.2310903,25.327586 c -0.057096,-0.294948 -0.080384,-0.650074 -0.069373,-1.0406 0.011011,-0.390525 0.056319,-0.816452 0.1387467,-1.283406 0.1761574,-0.997936 0.5402274,-2.132108 1.0405999,-3.364607 z m 5.0989394,1.526214 c 0.150057,0.03352 0.299488,0.072 0.450927,0.10406 0.673842,0.142644 1.329239,0.245334 1.97714,0.346866 -0.177124,0.203118 -0.343086,0.431519 -0.5203,0.62436 -0.01669,0.01817 -0.018,0.05129 -0.03469,0.06937 -0.171414,0.185567 -0.349437,0.344783 -0.5203,0.520299 C 15.611981,22.620371 15.418607,22.428276 15.237794,22.205783 14.968409,21.8743 14.70708,21.5234 14.44,21.165183 z m 3.884907,0.659046 c 0.111999,0.01265 0.150352,0.02112 0.277493,0.03469 0.412756,0.04402 0.855798,0.06799 0.867167,0.06937 a 0.61054628,0.61054628 0 0 0 0.173433,0.03469 c 0.05644,0.0041 0.117278,-0.0038 0.173433,0 1.106376,0.07487 2.147049,0.0501 3.1218,0 0.118363,0.525013 0.224057,1.027362 0.277493,1.491526 0.109277,0.949212 0.08103,1.772519 -0.06937,2.358694 -0.150407,0.586174 -0.410749,0.922441 -0.72842,1.109973 -0.497795,0.293865 -1.310835,0.219564 -2.428066,-0.381553 -0.558617,-0.300559 -1.165679,-0.711315 -1.803707,-1.24872 -0.319017,-0.268707 -0.641236,-0.580179 -0.971229,-0.901857 -0.201295,-0.196222 -0.420751,-0.409672 -0.62436,-0.62436 0.218456,-0.223904 0.441082,-0.419633 0.659046,-0.659046 0.350905,-0.385436 0.693274,-0.826164 1.0406,-1.24872 0.0101,-0.01222 0.02454,-0.02243 0.03469,-0.03469 z" id="7" color="#000" stroke-width="1.1" fill="#555753"></path><path d="M 10.20823,4.6830779 C 9.7546396,4.6887562 9.3121478,4.8012934 8.9248236,5.0299445 8.2669626,5.4183031 7.8458413,6.1071881 7.641417,6.9030244 7.4369928,7.6988607 7.4167814,8.6283536 7.5373571,9.6779574 7.5888861,10.126521 7.6752237,10.611192 7.7801637,11.10011 7.2699708,11.16262 6.7787922,11.243771 6.3233238,11.342917 5.3033437,11.564946 4.4369414,11.902642 3.7565107,12.34883 c -0.6804307,0.446188 -1.1958394,1.027646 -1.35278,1.76902 -0.2539322,1.199552 0.4292514,2.365596 1.5608999,3.399293 0.8487364,0.775273 2.0022646,1.508861 3.3646065,2.185259 0.2112675,0.104893 0.4375087,0.210309 0.6590466,0.31218 a 0.61054628,0.61054628 0 0 0 0.20812,0.173434 c -0.5087176,1.288328 -0.8821361,2.51321 -1.0752866,3.607413 -0.1825673,1.034247 -0.2247803,1.972129 -0.069373,2.774933 0.1554069,0.802804 0.5147879,1.515569 1.1446599,1.942453 0.9845553,0.667264 2.271502,0.504755 3.607413,-0.10406 1.193352,-0.543847 2.489508,-1.517351 3.815533,-2.740246 l 0.03469,0.03469 0.06937,-0.06937 c 1.26456,1.328089 2.537511,2.351413 3.711473,2.983053 0.979206,0.526853 1.921313,0.811752 2.774933,0.659047 0.14227,-0.02545 0.314933,-0.08878 0.450927,-0.138747 0.135994,-0.04997 0.252631,-0.09732 0.381553,-0.173433 0.164545,-0.09713 0.315719,-0.215268 0.450927,-0.346867 0.135208,-0.131598 0.240348,-0.290848 0.346866,-0.450926 0.213038,-0.320157 0.383445,-0.677107 0.485614,-1.075287 0.204338,-0.796358 0.224978,-1.724598 0.10406,-2.774933 -0.0529,-0.459522 -0.136768,-0.955446 -0.242807,-1.45684 0.525066,-0.06044 1.027146,-0.106524 1.491527,-0.20812 1.016549,-0.222407 1.888614,-0.525414 2.566813,-0.971227 0.678199,-0.445813 1.196169,-1.063892 1.35278,-1.803706 0.253932,-1.199553 -0.463938,-2.365596 -1.595587,-3.399293 -1.027976,-0.938998 -2.478811,-1.814739 -4.231773,-2.6015 0.07783,-0.193364 0.171873,-0.399717 0.242807,-0.589673 0.260966,-0.698851 0.459627,-1.369303 0.62436,-2.011826 C 24.967346,9.988505 25.126431,8.8252943 25.019436,7.8395713 24.912446,6.8538484 24.506026,6.0139069 23.770716,5.5155648 23.403062,5.2663938 23.00253,5.1352598 22.556683,5.0993249 22.110835,5.0633899 21.646822,5.1051549 21.169216,5.2380715 20.214003,5.5039029 19.188315,6.051531 18.11679,6.8336581 17.581027,7.2247216 17.04143,7.6843229 16.486517,8.186438 16.417877,8.248549 16.347203,8.3308394 16.278397,8.394558 15.013029,7.0587134 13.742796,6.0106273 12.566924,5.3768112 11.913057,5.0243655 11.27674,4.7936318 10.659157,4.7177646 10.504761,4.6987973 10.359427,4.6811854 10.20823,4.6830779 z M 9.9654235,5.9317978 c 0.4906195,-0.075499 1.1722185,0.067736 2.0118265,0.5203 1.010328,0.5445847 2.222654,1.50225 3.43398,2.7749331 -0.589212,0.5967914 -1.18596,1.2419481 -1.76902,1.9424531 -1.358896,-0.155129 -2.654439,-0.229723 -3.8502198,-0.20812 -0.2674636,0.0049 -0.5069348,0.02038 -0.7631066,0.03469 C 8.914514,10.484023 8.8034719,9.9925782 8.7513903,9.5392108 8.6424331,8.5907437 8.6703212,7.8008849 8.8207636,7.2152044 8.9712057,6.6295239 9.2316668,6.2579858 9.5491836,6.0705445 9.6738114,5.9969721 9.8018834,5.9569641 9.9654235,5.9317978 z M 22.001696,6.3133511 c 0.479933,-0.056215 0.843801,0.027726 1.109973,0.20812 0.354898,0.240525 0.610419,0.6892826 0.693734,1.4568399 0.08331,0.7675573 -0.04192,1.7936589 -0.346867,2.983053 -0.19319,0.753524 -0.487518,1.571001 -0.83248,2.428066 -0.256413,-0.101674 -0.49651,-0.214523 -0.763106,-0.31218 -0.7873,-0.288397 -1.631429,-0.554128 -2.49744,-0.797794 -0.735626,-1.086929 -1.485231,-2.091647 -2.254633,-2.9830519 0.597488,-0.5518902 1.174471,-1.0481864 1.734333,-1.4568398 0.991766,-0.7239099 1.892387,-1.2151571 2.636186,-1.4221532 0.185951,-0.051749 0.360323,-0.085321 0.5203,-0.10406 z m -5.792673,3.8502199 c 0.447252,0.522242 0.91178,1.065551 1.35278,1.664959 -0.151417,-0.03414 -0.297858,-0.07166 -0.450926,-0.10406 -0.667468,-0.141296 -1.323803,-0.28193 -1.97714,-0.381553 0.188505,-0.213576 0.366396,-0.457032 0.554986,-0.659046 0.173718,-0.186083 0.347168,-0.344421 0.5203,-0.5203 z m -6.3823461,2.011826 c 0.9088641,-0.0146 1.8875611,0.04732 2.9136801,0.138746 -0.414067,0.542356 -0.815842,1.077423 -1.214033,1.66496 -0.299902,0.442508 -0.595896,0.878973 -0.867167,1.318093 -0.04137,0.06696 -0.06332,0.141218 -0.10406,0.20812 -0.136982,-0.309398 -0.293991,-0.633942 -0.41624,-0.93654 -0.3362832,-0.83238 -0.57568,-1.597812 -0.7977934,-2.358693 0.1634835,-0.0062 0.317227,-0.03198 0.4856133,-0.03469 z M 8.057657,12.279456 c 0.010611,-0.0011 0.024044,0.0011 0.034687,0 0.3963943,1.411199 0.9514568,2.92967 1.6996465,4.509267 L 9.6185569,17.170276 C 9.2832512,17.795566 8.9555046,18.403491 8.682017,19.008669 8.4002052,18.881077 8.1116362,18.759512 7.849537,18.627116 6.5702431,17.980894 5.5278749,17.282801 4.7971106,16.615289 3.8227582,15.725274 3.460517,14.93962 3.5830773,14.360656 3.6398883,14.092288 3.7821106,13.842629 4.0686906,13.59755 4.1642176,13.51586 4.29076,13.436578 4.4155573,13.354743 c 0.499189,-0.32734 1.2302398,-0.632142 2.1505732,-0.83248 0.4601667,-0.100164 0.9483439,-0.186921 1.4915265,-0.242807 z m 6.104853,0.173434 c 0.878183,0.118556 1.788185,0.291415 2.70556,0.485613 0.608044,0.128716 1.192856,0.264824 1.76902,0.41624 0.324096,0.494143 0.624793,0.998128 0.93654,1.526213 0.443317,0.750959 0.845717,1.512117 1.214033,2.254633 -0.418249,0.724781 -0.855761,1.451904 -1.35278,2.18526 -0.451635,0.666391 -0.915494,1.301909 -1.387467,1.907767 -0.08537,0.109587 -0.191715,0.20476 -0.277493,0.31218 -0.412229,-0.05604 -0.825812,-0.132224 -1.24872,-0.20812 -0.457269,-0.08206 -0.920955,-0.178738 -1.387466,-0.277494 -0.618129,-0.13085 -1.2171,-0.261801 -1.803707,-0.41624 -0.327229,-0.493934 -0.624051,-0.996872 -0.93654,-1.526213 -0.444643,-0.753204 -0.84559,-1.511506 -1.214033,-2.254633 0.412826,-0.724575 0.857541,-1.454528 1.35278,-2.18526 0.531886,-0.784803 1.070721,-1.523126 1.630273,-2.219946 z m 6.208913,1.422153 c 0.614887,0.197273 1.205373,0.402988 1.76902,0.62436 -0.196841,0.430736 -0.429047,0.873793 -0.659047,1.318093 -0.03758,-0.06951 -0.06583,-0.138505 -0.10406,-0.20812 -0.244792,-0.445732 -0.498631,-0.90477 -0.763106,-1.35278 -0.07774,-0.131685 -0.164272,-0.251959 -0.242807,-0.381553 z m 2.91368,1.109973 c 1.66278,0.750365 3.039111,1.58911 3.919593,2.39338 0.974352,0.890015 1.301907,1.675669 1.179346,2.254633 -0.07559,0.357072 -0.300647,0.679115 -0.797793,1.005913 -0.497146,0.326799 -1.233694,0.63188 -2.150573,0.83248 -0.467398,0.102262 -0.970521,0.187041 -1.526213,0.242807 -0.389937,-1.424537 -0.976191,-2.947071 -1.734333,-4.543953 -0.0047,-0.0097 0.0047,-0.02497 0,-0.03469 0.31257,-0.566847 0.638326,-1.14745 0.901853,-1.699646 0.07463,-0.156391 0.137514,-0.296056 0.20812,-0.450927 z m -12.79938,3.191173 c 0.268425,0.514616 0.560017,1.040602 0.867167,1.5609 0.07798,0.132079 0.163866,0.251418 0.242807,0.381553 -0.278089,-0.08921 -0.564645,-0.183185 -0.83248,-0.277493 -0.324089,-0.114115 -0.62847,-0.225726 -0.9365401,-0.346867 0.1986331,-0.430247 0.4275551,-0.873519 0.6590461,-1.318093 z m 10.9263,0.31218 c 0.514107,1.160721 0.911438,2.258067 1.214033,3.295233 -1.038159,0.03723 -2.163249,0.0022 -3.364606,-0.10406 0.0059,-0.0078 -0.0059,-0.02689 0,-0.03469 0.03968,-0.05271 0.09918,-0.08561 0.138746,-0.138747 0.0055,-0.0074 -0.0055,-0.02724 0,-0.03469 0.35066,-0.471525 0.700002,-0.954283 1.0406,-1.45684 0.348583,-0.514337 0.65913,-1.014315 0.971227,-1.526213 z M 9.3410636,20.638942 c 0.9967124,0.392318 2.0834604,0.72526 3.2258604,1.0406 0.01099,0.003 0.02369,-0.003 0.03469,0 0.0053,0.0078 -0.0053,0.02687 0,0.03469 0.223305,0.329197 0.466167,0.658786 0.693734,0.971227 0.332197,0.456093 0.66801,0.900582 1.005913,1.318093 0.20423,0.252346 0.384533,0.49117 0.589673,0.72842 -0.02424,0.02261 -0.04518,0.04698 -0.06937,0.06937 -1.259746,1.165858 -2.480202,2.031159 -3.503354,2.49744 -0.855779,0.390001 -1.5295441,0.490184 -2.0118331,0.381553 -0.1607631,-0.03621 -0.297441,-0.09292 -0.4162399,-0.173433 -0.304008,-0.206036 -0.5448542,-0.589449 -0.6590467,-1.179347 -0.057096,-0.294948 -0.080384,-0.650074 -0.069373,-1.0406 0.011011,-0.390525 0.056319,-0.816452 0.1387467,-1.283406 0.1761574,-0.997936 0.5402274,-2.132108 1.0405999,-3.364607 z m 5.0989394,1.526214 c 0.150057,0.03352 0.299488,0.072 0.450927,0.10406 0.673842,0.142644 1.329239,0.245334 1.97714,0.346866 -0.177124,0.203118 -0.343086,0.431519 -0.5203,0.62436 -0.01669,0.01817 -0.018,0.05129 -0.03469,0.06937 -0.171414,0.185567 -0.349437,0.344783 -0.5203,0.520299 C 15.611981,23.62034 15.418607,23.428245 15.237794,23.205752 14.968409,22.874269 14.70708,22.523369 14.44,22.165152 z m 3.884907,0.659046 c 0.111999,0.01265 0.150352,0.02112 0.277493,0.03469 0.412756,0.04402 0.855798,0.06799 0.867167,0.06937 a 0.61054628,0.61054628 0 0 0 0.173433,0.03469 c 0.05644,0.0041 0.117278,-0.0038 0.173433,0 1.106376,0.07487 2.147049,0.0501 3.1218,0 0.118363,0.525013 0.224057,1.027362 0.277493,1.491526 0.109277,0.949212 0.08103,1.772519 -0.06937,2.358694 -0.150407,0.586174 -0.410749,0.922441 -0.72842,1.109973 -0.497795,0.293865 -1.310835,0.219564 -2.428066,-0.381553 -0.558617,-0.300559 -1.165679,-0.711315 -1.803707,-1.24872 -0.319017,-0.268707 -0.641236,-0.580179 -0.971229,-0.901857 -0.201295,-0.196222 -0.420751,-0.409672 -0.62436,-0.62436 0.218456,-0.223904 0.441082,-0.419633 0.659046,-0.659046 0.350905,-0.385436 0.693274,-0.826164 1.0406,-1.24872 0.0101,-0.01222 0.02454,-0.02243 0.03469,-0.03469 z" id="8" opacity="0.2" color="#000" stroke-width="1.1" fill="#555753"></path></svg> 